<svg width="160" height="524" viewBox="0 0 160 524" fill="none" xmlns="http://www.w3.org/2000/svg">
<rect width="160" height="524" fill="white"/>
<path d="M153.278 0C104.354 0 55.7889 0 6.86523 0C6.86523 51.4954 6.86523 102.633 6.86523 153.842C55.7889 153.842 104.641 153.842 153.278 153.842C153.278 102.347 153.278 51.4954 153.278 0Z" fill="#5083F3"/>
<path d="M96.8332 278.004C96.5467 278.004 95.902 277.718 95.6155 277.718C95.6155 248.894 95.6155 219.785 95.6155 190.604C84.7276 190.604 74.4845 190.604 63.6682 190.604C63.6682 219.714 63.6682 248.823 63.6682 277.718C63.0952 278.004 62.4505 278.29 62.164 278.29C49.7719 266.274 37.738 254.33 25.9906 242.887C17.8247 250.325 10.59 257.191 4 263.413C29.3572 287.373 54.9293 311.69 80 335.65C105.357 311.69 130.929 287.373 156 263.985C148.765 256.833 141.531 249.967 133.078 242.314C121.259 254.044 108.939 266.059 96.8332 278.004Z" fill="#5083F3"/>
<path d="M134.595 386.391L94.5534 410.78V362.646H64.5402V410.78L24.7853 386.391L9.59961 413.498L49.6411 437.887L9.59961 462.275L24.7853 489.382L64.5402 464.993V514.343H94.5534V464.993L134.595 489.382L149.494 462.275L109.453 437.887L149.494 413.498L134.595 386.391Z" fill="#5083F3"/>
</svg>
