<svg width="24" height="24" viewBox="0 0 24 24" fill="none" xmlns="http://www.w3.org/2000/svg">
<path fill-rule="evenodd" clip-rule="evenodd" d="M11.4923 3.14359C6.86667 3.14359 3.03077 6.97949 3.03077 11.6051C3.03077 16.3436 6.75385 20.0667 11.4923 20.0667C16.1179 20.0667 19.9538 16.2308 19.9538 11.6051C19.9538 6.97949 16.2308 3.14359 11.4923 3.14359ZM1 11.6051C1 5.73846 5.73846 1 11.4923 1C17.359 1 21.9846 5.73846 21.9846 11.6051C21.9846 14.0872 21.0821 16.3436 19.7282 18.1487L22.7744 21.1949C23.2256 21.6462 23.2256 22.3231 22.7744 22.6615C22.3231 23.1128 21.6462 23.1128 21.3077 22.6615L18.2615 19.6154C16.4564 21.1949 14.0872 22.0974 11.4923 22.0974C5.73846 22.3231 1 17.4718 1 11.6051Z" fill="black"/>
</svg>
